<?xml version="1.0"?><svg version="1.2" baseProfile="tiny-ps" viewBox="0 0 300 300" xmlns="http://www.w3.org/2000/svg" xmlns:xlink="http://www.w3.org/1999/xlink"><title>ChocolateMoo53</title><g><g fill="#f0531a" transform="matrix(.1 0 0 -.1 0 300)"><path d="M0 1500V0h3000v3000H0V1500z"/></g><g fill="#c44415" transform="matrix(.1 0 0 -.1 0 300)"><path d="M0 1500V0h3000v3000H0V1500zm2614 1117 24-24 7-41 7-41-17-63c-8-35-29-91-45-125l-29-63-55-55-56-55-45-89-45-90-27-26c-35-33-114-73-214-109l-76-27-51 30-52 30v-29l33-13 32-14 19-35 19-35 66-11c36-6 109-16 161-22l95-11 58-26 58-26 42-47 42-47 63-126 62-126v-40c0-21-3-47-7-56l-6-17-51-24-51-24h-54l-78 39c-86 43-151 66-160 57-3-3 3-8 13-12 57-19 156-69 171-86l18-20-20-14c-28-21-51-18-143 22l-84 36-33-6c-18-4-44-16-59-27-14-11-44-28-68-39s-63-33-88-50l-45-30-5 16-6 15-26-20c-14-12-29-21-33-21h-6l6 10 6 10h-9c-5 0-15-7-22-15-16-20-28-19-32 3l-4 17-22-43c-13-23-34-86-48-140-31-116-61-178-122-252-25-30-51-70-59-87-7-18-18-33-24-33-5 0-31-20-57-44l-47-43-36-12-36-12-24 10c-14 5-31 16-38 25l-13 15 7 40 7 40-7 21-6 20h-59l-42-26-42-27-41-4-40-5-35 24-35 24-12 35-11 35 14 78c9 43 13 85 10 92l-5 14h-55l-51-55-50-55h-64l-11 19c-5 11-10 33-10 49v30l-13 11c-8 6-37 15-66 21-59 11-79 20-104 47l-17 20-9 47c-5 26-13 52-18 57l-8 8-52-13-52-14-36 8c-41 9-65 26-65 47 0 23 74 143 132 213l54 65 58 40 59 40h332l69 33 69 32 61 67c34 36 82 88 107 115l46 48h30c17 0 50 7 74 16l44 15 60-5 60-5-20 9c-32 14-102 11-169-6l-61-16-57 6-57 6-97 40c-146 61-206 73-416 89l-117 9-37 19-37 19-19 34-18 35v142l23 34 23 34 18 3c35 7 65-9 142-74 83-69 141-104 171-103h18l-52 24-53 24-65 63-65 64v28c0 35 15 62 41 76l20 11 23-15 23-15 31-54 30-53 66-43c36-24 66-47 66-51s12-25 28-48l27-41 74-55c41-31 77-56 79-56 12 0-28 36-91 83l-69 51-23 46c-13 26-34 76-46 111l-21 64-1 75-1 75 14 25c7 14 20 30 29 37 19 15 66 17 91 3l18-10 11-31 11-32v-132l15-68 14-67 32-60c17-33 47-75 65-94l34-35 39-12 39-12 55 7 55 7 44 22 43 22 5 156 5 157 19 21 20 22 20-3 21-3 18-35 18-35-4-124-4-123 7 13c4 8 10 61 14 119l7 105 19 65c10 36 31 112 45 170 15 58 33 115 41 127l14 22 39-1c21 0 44 2 49 6l10 6 23-19 24-19v-119l-82-164c-45-90-86-182-92-204l-11-40-36-53c-19-30-33-56-31-59 3-2 16 11 29 30l24 35 18-13 18-13 36 5 37 6 8 13 7 13 53 10c28 6 86 17 127 25l76 14 47 22 47 22 19 27c10 14 28 57 41 94l22 68 1 57 1 57-29 112-29 111 12 26 12 26h67l17-19c10-11 35-61 57-113 22-51 43-100 48-108l8-15h48l17 35 17 35 6 60c9 88 13 103 35 125 26 26 46 25 74-3zm67-198 11-22-4-63-4-63-64-95-63-94-46-34c-25-19-68-47-95-63l-48-28 24 39c14 21 35 61 46 87l22 48 64 68 65 67 31 67c16 37 30 76 30 87v20h10c5 0 14-10 21-21zm-1346-493c43-24 81-48 83-54l3-10-56-7c-31-4-72-5-92-2l-36 6-35 33c-37 36-92 106-92 119v8l73-25c39-13 108-44 152-68zm328-281-22-16 31-29c37-35 47-37 81-10 14 11 31 20 39 20l13 1-28 24-28 25h-65l-21-15z"/></g><g fill="#8d310f" transform="matrix(.1 0 0 -.1 0 300)"><path d="M0 1500V0h3000v3000H0V1500zm2619 1121 20-20 7-36 7-37-7-43c-3-25-20-81-37-126l-31-81-64-68-64-67-39-80c-22-44-51-94-66-111l-27-32-71-33c-40-19-101-44-136-57l-64-23-49 27c-56 32-79 28-25-4l36-21 19-33 20-33 33-7c19-3 79-11 134-17 180-19 236-39 306-111l40-41 64-129 65-129v-99l-20-20c-24-24-86-51-122-52l-26-1-84 41c-45 23-96 44-113 47l-30 7 87-43 87-42 6-15 5-15-11-13-11-14h-66l-66 31-66 31h-69l-38-23c-21-13-59-34-86-46-26-12-62-34-81-48-38-29-46-31-46-9v15l-31-22-31-22-7 12-8 12-13-16c-16-20-28-19-33 3l-4 17-22-50c-13-27-33-90-47-140-30-112-60-174-122-250-27-33-52-70-56-83l-7-22-22-11c-12-7-34-26-49-44l-28-33-42-17-42-16-33 6-33 6-11 21-11 20 7 45 6 44-12 15-11 14h-22c-11 0-43-14-71-30l-50-30h-83l-30 25c-16 13-35 38-42 55l-13 31 16 79 16 80-5 15-6 15h-48l-53-54c-28-29-61-56-71-60l-19-6-23 15-24 15v31c0 17-5 39-10 49l-10 19-48 7c-26 3-62 13-80 21l-33 16-13 26c-7 14-16 43-20 63-4 21-12 40-18 44l-10 7-52-13-51-12-42 11-43 12-10 20-11 19 38 63c83 138 182 245 259 282l37 18 131-7 131-7 60 19c33 10 79 30 101 45l41 26 64 72c35 40 76 85 90 100l26 28 29 6c16 3 47 11 69 17l40 12h134l-12 8c-20 13-96 9-154-8l-56-16-61 4-61 5-115 45c-144 57-179 65-371 82l-156 14-32 16c-40 21-61 55-73 114l-8 47 10 50 11 50 21 22 21 23h54l37-25c20-14 65-48 99-76 34-29 76-58 94-65 54-23 52-15-3 11l-51 25-61 60-62 60v80l20 20 20 20h37l20-22c11-13 28-36 36-53 8-16 28-42 44-56 31-28 133-101 133-95 0 2-9 23-19 47-11 24-25 73-31 109l-12 65 7 54 7 54 23 23 24 24h78l18-20 18-20 9-113c5-61 15-134 23-162l14-50 63-18c70-20 260-116 265-133l4-11-23-7c-13-3-49-6-81-6h-58l-29 15-28 15-38 47c-55 69-60 73-34 26 13-23 38-56 55-73l33-32 42-9 42-10 36 7c63 10 106 26 129 46l22 20-2 142-1 141 13 23c7 13 22 27 34 31l22 9 16-9 17-9 11-31 11-32 2-106 1-106 7 100 7 100 31 105c17 58 39 138 48 177l17 73 16 14 16 13 51 6 50 6 11-7c5-4 15-17 22-29l11-22v-89l-78-158c-44-88-87-184-97-214s-31-75-47-100l-29-45 24 29 24 28 7-11 7-11h99v10c0 17 35 29 133 44 53 9 120 25 150 36l53 20 28 29 27 28 25 73 24 72v123l-25 90c-14 50-25 104-25 122v32l22 15c58 41 84 10 184-222l14-33 17 3c9 2 25 15 35 29l20 26 13 93 12 94 23 18c12 10 31 18 41 18h19l19-19zm59-198c6-10 13-32 16-50l7-31-10-39-11-39-59-92-60-91-48-35c-26-19-69-47-95-61l-47-26 46 88 46 88 58 60 58 60 35 75c20 41 36 82 36 92v18h10c5 0 13-8 18-17zM952 1960c20-34 168-154 168-136 0 2-33 29-73 59-41 31-82 66-92 79l-17 23 14-25zm723-312c-11-6-22-13-24-14-6-5 31-44 52-56l19-10 34 24c18 13 34 26 34 30 0 11-56 38-77 38-10 0-27-6-38-12z"/></g><g fill="#4e1b08" transform="matrix(.1 0 0 -.1 0 300)"><path d="M0 1500V0h3000v3000H0V1500zm2630 1108 20-33v-97l-16-56c-9-32-28-79-41-107l-25-50-58-60-58-61-41-82c-23-45-39-82-36-82s23 36 45 79l40 80 58 58 59 58 25 50c14 28 32 69 39 93l12 43 11-4c17-6 36-49 36-82 0-51-16-92-73-177-63-96-88-121-177-177l-64-42-12 5-12 5-23-26c-29-31-93-64-212-109l-90-34-16 14c-9 7-32 22-51 31l-35 18 14-16c7-10 19-17 26-17s25-15 39-32c15-18 30-38 35-44l10-12 88-11c48-7 122-17 163-22l75-11 58-31 59-31 31-37 32-37 63-126c35-70 66-141 68-159l6-32-11-27-11-28-32-20c-18-11-50-25-70-32l-37-11-85 42c-101 49-126 54-41 8l60-32 3-22 3-21-34-11-33-11-77 35-76 35h-78l-24-19c-13-10-53-33-89-51s-76-41-89-51c-13-11-30-19-38-19h-14l6 10 6 10h-6c-4 0-18-9-33-20l-25-21-7 11-7 11-13-16c-18-21-30-19-31 8l-1 22-27-60c-16-33-36-94-46-135-22-93-60-169-120-243-25-31-51-70-56-87-6-16-15-30-20-30-4 0-31-21-60-46-55-49-85-64-127-64h-28l-23 16-24 17 6 51 5 52-9 17-10 17h-44l-40-27-39-26-46-5-47-4-31 16-32 16-16 32-16 32 7 55c4 31 8 76 9 101l1 45-18 3-18 4-53-55c-30-30-63-58-75-62l-22-7-24 16-25 16v56l-15 21-14 21-48 7c-90 13-119 38-137 117l-12 53-24-2c-14-1-47-5-75-8l-50-6-35 18-35 18-3 17-3 16 56 88 57 88 62 64c33 35 80 75 104 89l43 26 127-6 127-5 50 10 50 10 59 31 58 31 62 70c33 38 77 87 97 108l37 38 33 1c19 0 43 4 53 8l20 8-85-5-85-4-117 46c-151 60-212 74-382 86l-140 11-44 22-45 22-20 28-21 28v154l17 31 17 31 30 12 29 13 31-16c17-9 48-31 68-49l38-32-33 38-32 38v82l17 19 16 18h19c11 0 28-5 39-10l19-11 24-47c13-26 35-57 48-68 23-21 103-74 112-74 2 0-5 26-16 58l-20 57-5 80-4 80 18 35 18 35 28 13 28 13 26-8 27-9 18-25 18-24 5-95c3-52 13-122 21-155l15-61 52-12c62-14 242-101 275-132l22-21 24 24 24 24-5 119-5 119 14 40 13 39 27 16 28 15 22-23 23-23 6-112 6-112 1 72 2 71 40 149c53 199 69 252 78 256 4 3 35 7 69 11l62 7 17-26 16-25v-102l-86-173c-47-95-86-179-86-186 0-8-9-33-19-55l-19-42 11-11 11-11h82l16 19 16 19 44 7c23 3 79 13 123 22l80 15 47 24 48 24 16 24c8 14 24 48 35 77l21 53 5 66 5 65-26 99c-15 54-28 112-28 127l-1 29 18 20 18 20h47l20-20c23-23 60-95 86-168l18-53 19-17 19-17 23 27 24 28 6 47c3 27 8 67 11 90l5 42 20 25 20 26h59l20-32zm-1481-681 33-49 31-19 32-19 65 2 65 1-74 6-74 6-55 60-55 60 32-48zm-129-31c0-2 8-10 18-17l17-14-14 18c-13 16-21 21-21 13zm40-30c0-2 8-10 18-17l17-14-14 18c-13 16-21 21-21 13zm398-183c12-2 32-2 45 0l22 4h-90l23-4zm232-30c-8-3-21-10-28-16l-13-10 22-24 22-23h20c10 0 32 10 49 21l29 21-19 14c-24 16-62 25-82 17z"/></g><g fill="#030100" transform="matrix(.1 0 0 -.1 0 300)"><path d="M0 1500V0h3000v3000H0V1500zm2630 1113 22-28-5-75c-3-41-7-86-11-100l-6-25 12 33c14 40 23 40 43 2l15-29v-86l-19-40c-11-22-41-73-68-112l-48-73-55-41c-55-41-150-94-150-84 0 3-12-6-27-21-31-29-117-72-224-110l-68-24-37 25c-20 14-42 25-48 25-6-1 5-9 24-20l36-18 14-29c8-15 15-29 15-30 3-6 105-22 204-33l104-11 53-20 53-20 51-46 50-45 70-140 70-139v-34c0-19-4-45-9-58l-10-25-55-26c-68-32-91-33-152 0l-49 25 29-23 28-24-3-19-4-19-33-10-32-9-78 37-78 36h-60l-45-28c-24-15-59-34-76-41-18-7-54-28-80-47l-47-33-13 11-13 11-22-19-21-19-4 13-5 13-19-17-19-18-12 12-11 11-19-41c-10-22-28-77-39-122-28-111-51-159-114-241-30-39-59-83-64-98l-11-27-22-9c-13-5-36-23-53-41-16-17-42-38-57-46l-27-14h-80l-20 25-19 26 5 53 6 54-21 6-20 7-70-37-70-37-36 7-37 7-32 29-32 28 3 79c1 43 3 96 5 118l2 40-25-3-25-3-51-54-50-55h-25c-14 0-33 6-43 13l-17 13-6 42-6 43-16 8c-9 5-38 12-65 16l-50 7-33 33-32 32-7 40c-3 22-10 46-14 53l-8 12-37-12-37-12-49 4-49 5-20 18c-11 10-20 25-20 33 0 21 101 178 154 238 24 28 69 67 99 88l54 37 174 2 174 2 58 29 58 30 42 40c23 23 70 73 104 113l63 71-16 6c-9 3-25 6-37 6s-71 21-131 45l-110 45-70 14c-39 8-131 20-205 25l-135 11-44 21-44 22-19 41-19 41v120l18 35 17 35 26 14 26 15 33-14c18-7 47-25 64-39l31-25-25 28-25 27v77l19 21 19 21h56l16-22c9-13 28-42 43-65 28-43 51-64 113-101l35-21-23 67-22 67-1 73v74l15 33 16 32 25 12c47 21 94 9 115-30l11-21 8-116 9-117 14-39 13-39 52-13c59-15 244-106 271-133l18-18 23 17 23 17-2 137-2 136 16 35 17 34 19 6c10 4 27 4 37 0l19-5 11-26c7-14 12-31 12-39s5-15 10-15c6 0 10 2 10 5 0 19 92 351 100 360l10 12 61 7 61 7 18-16 19-17 6-39 7-39-12-37c-7-21-45-103-85-183s-80-171-89-202-21-60-27-63l-10-7 18-14c25-19 52-17 98 7l39 21 109 19 110 20 54 25 54 26 14 22c24 36 55 137 61 196l6 55-31 118c-37 140-37 141-11 167l20 20h57l16-18c14-15 67-124 105-214l12-28h39l16 30 16 31 9 79c13 110 23 127 82 129l27 1 21-27zm-14-248c-9-26-7-32 5-12 6 10 9 21 6 23-2 3-7-2-11-11zm-127-182-14-18 18 14c9 7 17 15 17 17 0 8-8 3-21-13zm-64-94c-4-6-5-12-2-15 2-3 7 2 10 11 7 17 1 20-8 4zm-1260-180c19-26 64-64 69-57 1 1-18 21-43 43l-45 40 19-26zm503-270-18-10 26-24c32-30 51-31 84-4l25 21-20 14-19 14h-30c-17 0-39-5-48-11z"/></g></g></svg>